<svg width="220" height="60" viewBox="0 0 220 60" fill="none" xmlns="http://www.w3.org/2000/svg">
<g id="Frame 78" clip-path="url(#clip0_3013_58991)">
<path id="&#229;&#133;&#189;&#231;&#137;&#153;AI" d="M111.007 29.54H78.9467L80.3933 17.5466C80.5489 16.2088 80.9533 15.2288 81.6067 14.6066C82.2911 13.9844 83.2711 13.6733 84.5467 13.6733H88.2333L86.6 9.56663H90.8467L92.48 13.6733H101.16L103.307 9.56663H107.833L105.453 13.6733H109.28C111.707 13.6733 112.811 14.9488 112.593 17.5L111.007 29.54ZM94.3933 17.0333H84.5933L84.22 20.0666H93.9733L94.3933 17.0333ZM108.02 20.0666L108.44 17.0333H98.5L98.08 20.0666H108.02ZM93.5533 23.1466H83.8467L83.4733 26.1333H93.18L93.5533 23.1466ZM97.2867 26.1333H107.227L107.6 23.1466H97.66L97.2867 26.1333ZM75.9133 31.78H114.507L113.993 35.4666H75.4L75.9133 31.78ZM107.973 49.6066H78.62L79.6 41.58C79.7555 40.2422 80.16 39.2622 80.8133 38.64C81.4978 37.9866 82.4778 37.66 83.7533 37.66H105.733C108.222 37.66 109.327 38.9511 109.047 41.5333L107.973 49.6066ZM83.38 45.9666H104.1L104.707 41.3466H83.94L83.38 45.9666ZM161.22 12.04L160.707 16.2866H153.147L152.027 25.3866H161.453L160.94 29.68H151.513L149.46 46.34C149.273 47.5844 148.822 48.5333 148.107 49.1866C147.391 49.8711 146.411 50.1355 145.167 49.98C143.798 49.7933 142.351 49.4822 140.827 49.0466C139.147 48.58 137.793 48.0822 136.767 47.5533L137.327 43.0733C139.162 43.82 141.48 44.5044 144.28 45.1266C144.342 45.1577 144.436 45.1733 144.56 45.1733C144.716 45.1733 144.824 45.1111 144.887 44.9866C144.98 44.8622 145.058 44.66 145.12 44.38L146.8 30.24C144.342 33.4444 140.796 36.8511 136.16 40.46C132.707 43.1355 128.864 45.6711 124.633 48.0666L120.713 45.2666C124.913 43.0266 128.724 40.6777 132.147 38.22C136.098 35.3577 139.318 32.5111 141.807 29.68H128.787C128.133 29.68 127.62 29.5244 127.247 29.2133C126.904 28.9022 126.733 28.4977 126.733 28C126.733 27.6266 126.811 27.2844 126.967 26.9733L130.233 18.48H135.087L132.473 25.3866H147.36L148.48 16.2866H126.733L127.247 12.04H161.22ZM188.193 13.3C189.936 13.3 190.947 14.14 191.227 15.82L196.547 48.3466H190.713L189.173 38.22H174.1L170.04 48.3466H164.02L177.46 15.4466C178.051 14.0155 179.14 13.3 180.727 13.3H188.193ZM182.08 18.4333L176.153 33.0866H188.38L186.14 18.4333H182.08ZM204.973 13.3H210.48L206.186 48.3466H200.68L204.973 13.3Z" fill="#232730"/>
<g id="&#229;&#133;&#189;&#231;&#137;&#153;AI_2">
<path id="Vector" d="M204.973 13.2999H210.48L206.186 48.3466H200.68L204.973 13.2999Z" fill="#232730"/>
<path id="Vector_2" d="M188.193 13.2999C189.936 13.2999 190.947 14.1399 191.227 15.8199L196.547 48.3466H190.713L189.173 38.2199H174.1L170.04 48.3466H164.02L177.46 15.4466C178.051 14.0155 179.14 13.2999 180.727 13.2999H188.193ZM182.08 18.4333L176.153 33.0866H188.38L186.14 18.4333H182.08Z" fill="#232730"/>
<path id="Vector_3" d="M161.22 12.04L160.707 16.2867H153.147L152.027 25.3867H161.453L160.94 29.68H151.513L149.46 46.34C149.273 47.5845 148.822 48.5334 148.107 49.1867C147.391 49.8711 146.411 50.1356 145.167 49.98C143.798 49.7934 142.351 49.4823 140.827 49.0467C139.147 48.58 137.793 48.0823 136.767 47.5534L137.327 43.0734C139.162 43.82 141.48 44.5045 144.28 45.1267C144.342 45.1578 144.436 45.1734 144.56 45.1734C144.716 45.1734 144.824 45.1111 144.887 44.9867C144.98 44.8623 145.058 44.66 145.12 44.38L146.8 30.24C144.342 33.4445 140.796 36.8511 136.16 40.46C132.707 43.1356 128.864 45.6711 124.633 48.0667L120.713 45.2667C124.913 43.0267 128.724 40.6778 132.147 38.22C136.098 35.3578 139.318 32.5111 141.807 29.68H128.787C128.133 29.68 127.62 29.5245 127.247 29.2134C126.904 28.9023 126.733 28.4978 126.733 28C126.733 27.6267 126.811 27.2845 126.967 26.9734L130.233 18.48H135.087L132.473 25.3867H147.36L148.48 16.2867H126.733L127.247 12.04H161.22Z" fill="#232730"/>
<path id="Vector_4" d="M111.007 29.54H78.9466L80.3933 17.5467C80.5489 16.2089 80.9533 15.2289 81.6066 14.6066C82.2911 13.9844 83.2711 13.6733 84.5466 13.6733H88.2333L86.6 9.56665H90.8466L92.48 13.6733H101.16L103.307 9.56665H107.833L105.453 13.6733H109.28C111.707 13.6733 112.811 14.9489 112.593 17.5L111.007 29.54ZM94.3933 17.0333H84.5933L84.22 20.0666H93.9733L94.3933 17.0333ZM108.02 20.0666L108.44 17.0333H98.5L98.08 20.0666H108.02ZM93.5533 23.1467H83.8466L83.4733 26.1333H93.18L93.5533 23.1467ZM97.2866 26.1333H107.227L107.6 23.1467H97.66L97.2866 26.1333ZM75.9133 31.78H114.507L113.993 35.4666H75.4L75.9133 31.78ZM107.973 49.6067H78.62L79.6 41.58C79.7555 40.2422 80.16 39.2622 80.8133 38.64C81.4977 37.9867 82.4777 37.66 83.7533 37.66H105.733C108.222 37.66 109.327 38.9511 109.047 41.5333L107.973 49.6067ZM83.38 45.9667H104.1L104.707 41.3467H83.94L83.38 45.9667Z" fill="#232730"/>
</g>
<g id="logo" clip-path="url(#clip1_3013_58991)">
<g id="logo_2" clip-path="url(#clip2_3013_58991)">
<path id="Vector_5" d="M56.5945 35.7085C56.5253 36.1293 56.4622 36.3396 56.399 36.5921C55.1572 41.7194 52.46 46.2367 48.7976 49.72C47.9406 50.5345 43.9986 53.9698 38.0449 53.6031C32.8701 53.2845 28.0801 48.6501 28.1041 42.5339C28.1252 37.4006 31.3426 33.0036 36.9474 32.8533C41.5359 32.7301 43.9805 34.8609 46.4582 35.0563C48.7916 35.2396 51.6391 34.7768 53.4944 33.6197C55.948 32.0929 56.9643 33.4394 56.5945 35.7085Z" fill="#00E1EF"/>
<path id="Vector_6" d="M53.8719 18.8598C53.8712 18.8613 53.8692 18.8617 53.8679 18.8606C53.8417 18.8373 53.8155 18.814 53.7893 18.7907C53.1789 18.2467 52.6707 17.6005 52.2858 16.8822C52.1866 16.7019 52.0964 16.5155 52.0182 16.3232C49.4894 10.5888 44.8558 6.90404 39.2118 4.86933C39.0344 4.80621 38.857 4.74611 38.6766 4.68299C38.1384 4.50266 37.5881 4.34037 37.0288 4.19911C35.4502 3.78736 33.8084 3.51687 32.1246 3.39965C27.6774 3.09009 23.4016 3.87752 19.5708 5.53955C19.0656 5.74993 18.5695 5.98436 18.0854 6.23682C9.92464 10.3754 4.08525 18.5713 3.39968 28.3571C2.53369 40.7427 10.2013 51.7578 21.402 55.6438C21.426 55.6529 21.4501 55.6619 21.4771 55.6709C26.5017 56.8701 29.2921 55.3403 26.4175 51.1206C26.0687 50.6097 24.3006 47.514 23.7143 45.4252C23.1821 43.5318 22.8483 40.6165 22.9836 38.6779C23.6421 29.1055 29.9927 27.2661 33.4927 27.5096C36.9927 27.753 39.1968 29.4752 39.4794 32.679C39.5125 33.0276 39.4674 34.0405 39.4614 34.1397C39.3141 36.2585 38.6405 38.2151 37.5761 39.8921C37.125 40.6044 36.5627 41.2266 36.0245 41.8637C34.948 43.1411 36.9055 43.2432 38.2226 42.6602C39.1818 42.2364 39.8523 41.9148 40.8055 41.1845C41.9992 40.2708 42.9975 39.273 43.8755 38.167C44.8077 36.9888 46.4765 33.9593 46.4945 33.9233C47.3763 32.2534 48.9253 31.0112 50.7625 30.5337C50.7715 30.5313 50.7801 30.5249 50.7895 30.5242V30.5242C50.793 30.5239 50.7961 30.5237 50.7996 30.523C50.8825 30.5058 50.9679 30.4858 51.0508 30.4632C51.0562 30.4617 51.0608 30.4606 51.0657 30.4578V30.4578C51.0702 30.4552 51.0766 30.4543 51.0817 30.453C52.3235 30.1336 53.4392 29.4613 54.3004 28.5435C54.8958 27.9153 55.3709 27.176 55.6866 26.3495C55.9242 25.7333 56.0775 25.0721 56.1256 24.3809C56.2789 22.2091 55.3839 20.2025 53.876 18.8591C53.8747 18.8579 53.8727 18.8583 53.8719 18.8598V18.8598ZM43.662 19.7855C42.5014 19.9508 41.5662 18.944 41.7857 17.8229C41.927 17.0986 42.5675 16.5426 43.3072 16.5005C44.4589 16.4344 45.3339 17.5224 44.9851 18.6554C44.8016 19.2505 44.2784 19.6983 43.662 19.7855Z" fill="#015CFF"/>
</g>
</g>
</g>
<defs>
<clipPath id="clip0_3013_58991">
<rect width="220" height="60" fill="white"/>
</clipPath>
<clipPath id="clip1_3013_58991">
<rect width="53.3333" height="53.3333" fill="white" transform="translate(3.33334 3.33337)"/>
</clipPath>
<clipPath id="clip2_3013_58991">
<rect width="53.3333" height="53.3333" fill="white" transform="translate(3.33334 3.33337)"/>
</clipPath>
</defs>
</svg>
